/* XPM */
static char *_aeb889110ef405bfce57f1f9e918931chjD57vHQchfZF5R[] = {
/* columns rows colors chars-per-pixel */
"64 64 188 2 ",
"   c #3C132D",
".  c #3E1632",
"X  c #3F1831",
"o  c #411B34",
"O  c #421D3A",
"+  c #442136",
"@  c #46233B",
"#  c #492A3E",
"$  c #49263C",
"%  c #431E41",
"&  c #462443",
"*  c #4A2A45",
"=  c #472449",
"-  c #49264C",
";  c #4A2C4B",
":  c #482745",
">  c #572E49",
",  c #4D3242",
"<  c #4D304F",
"1  c #4F3B47",
"2  c #513647",
"3  c #533C4A",
"4  c #59354C",
"5  c #4B2B54",
"6  c #4D2E5A",
"7  c #4D3151",
"8  c #4E315D",
"9  c #513656",
"0  c #543758",
"q  c #533A5B",
"w  c #5A3854",
"e  c #623A54",
"r  c #4F3260",
"t  c #513564",
"y  c #553F61",
"u  c #523768",
"i  c #543A6D",
"p  c #563E74",
"a  c #55424E",
"s  c #52494F",
"d  c #564650",
"f  c #5A4652",
"g  c #5B4B55",
"h  c #5F4F59",
"j  c #565456",
"k  c #5B5157",
"l  c #5E5159",
"z  c #5D5D5D",
"x  c #62545D",
"c  c #625A5F",
"v  c #604D59",
"b  c #574265",
"n  c #584467",
"m  c #59466A",
"M  c #5B4A6E",
"N  c #57406B",
"B  c #5E4E73",
"V  c #59437C",
"C  c #5F5176",
"Z  c #5F507B",
"A  c #655C62",
"S  c #695E65",
"D  c #61557B",
"F  c #63597F",
"G  c #744B64",
"H  c #656565",
"J  c #696366",
"K  c #6B6669",
"L  c #6C6C6C",
"P  c #676868",
"I  c #706D6F",
"U  c #70676D",
"Y  c #6F6F70",
"T  c #726E71",
"R  c #6E7072",
"E  c #737373",
"W  c #797677",
"Q  c #727579",
"!  c #76797A",
"~  c #7A7A7A",
"^  c #835A73",
"/  c #886079",
"(  c #5B4681",
")  c #5D4986",
"_  c #5E4B89",
"`  c #604E8E",
"'  c #655C83",
"]  c #645789",
"[  c #614F90",
"{  c #635395",
"}  c #64559A",
"|  c #67599F",
" . c #685C9D",
".. c #676189",
"X. c #69638C",
"o. c #757B85",
"O. c #7B7E82",
"+. c #6D6B95",
"@. c #6F6D98",
"#. c #6B6690",
"$. c #706F9A",
"%. c #71729D",
"&. c #685BA4",
"*. c #6A5FAA",
"=. c #675BA3",
"-. c #6C62AD",
";. c #6F6BA9",
":. c #7476A2",
">. c #7579A5",
",. c #777CA9",
"<. c #797FAC",
"1. c #7474AB",
"2. c #6E64B2",
"3. c #716ABC",
"4. c #7473B0",
"5. c #736EC2",
"6. c #7570C6",
"7. c #7672CA",
"8. c #7874CD",
"9. c #7977D1",
"0. c #7B7AD4",
"q. c #7D7DDB",
"w. c #936B83",
"e. c #997189",
"r. c #7D8389",
"t. c #7D8798",
"y. c #7980AE",
"u. c #7C85B3",
"i. c #7F8AB9",
"p. c #7B82BF",
"a. c #7C82C1",
"s. c #7F84D4",
"d. c #7F81E2",
"f. c #838383",
"g. c #818A8D",
"h. c #8A9599",
"j. c #8D9A9E",
"k. c #889396",
"l. c #808897",
"z. c #AF889F",
"x. c #8F9EA2",
"c. c #8592A8",
"v. c #919FA3",
"b. c #808DBD",
"n. c #8597B8",
"m. c #91A1A5",
"M. c #9BADB3",
"N. c #818FC0",
"B. c #8493C4",
"V. c #8697C9",
"C. c #8799CB",
"Z. c #889BCE",
"A. c #8A9FC5",
"S. c #828BDA",
"D. c #8A9ED2",
"F. c #8897D9",
"G. c #8CA2D5",
"H. c #8EA6DB",
"J. c #8FA8DD",
"K. c #90AADF",
"L. c #90A7D1",
"P. c #8DA2CA",
"I. c #A5BDC3",
"U. c #8184E5",
"Y. c #8286EA",
"T. c #848BEA",
"R. c #838CE2",
"E. c #8691EA",
"W. c #8996EA",
"Q. c #8C9CEA",
"!. c #8A9BE3",
"~. c #8EA1EA",
"^. c #8EA4E1",
"/. c #92ADE3",
"(. c #90A6EB",
"). c #92ABEB",
"_. c #94B0E6",
"`. c #96B4EB",
"'. c #E1BBD1",
"]. c #ACC7CF",
"[. c #A7C1C9",
"{. c #AFCCD4",
"}. c #B0CCD4",
"|. c #B6D5DD",
" X c #BDDFE8",
".X c #BADBE4",
"XX c #BFE1EB",
"oX c #C1E4EE",
/* pixels */
"W W ~ O.~ ~ ~ ~ W ~ W W W W W ! ~ W W W W W f.E R W W E E L E E W E E W E P H P Y L L E L P P P P H H H P H L P E E E P H H z j ",
"~ W ~ f.f.~ W ~ W ~ W W W W ~ f.r.W O.~ f.W W W E E E E L W W E L W E E L P H H P H H E L P P P H P J H H H P P L L E L z H z j ",
"f.f.f.f.f.~ W W W W W W W W W W ~ W ~ O.~ ~ W W W W E E E E E W L P W W P P P H H H L E E L P W H P H z H H P H P L E E H H z z ",
"f.~ f.f.f.W W W W W E W E W E W ~ W W ~ ~ W W W E E L L E L E W E E W E L L H H H H P E L H H E L H z j H H P H H P L E P H z z ",
"f.W W W E L A A L W W W W E W E W E W W W E W ! E E E L E W W c a 3 l J L L L H P L P P P P P L L H j z H P L H P R M.! H P H z ",
"~ W W W A @       $ g K E E W W W W W E W W L E P P P H c f +         # J P H H L L H H Y E P P E P H H H W W L P g.|.k.R P H H ",
"W W ~ U O   @ : O .   $ l K L L U J x f f h x A K H A a o   . O = - o X a H z H L L L Q o.Q P P L P P H H W W W r.I.XX].g.R H z ",
"~ f.f.v   * >.B.%.n & .   , d , +               + , $   . * M ;.0.q.p   # A H P W W t.G._.A.R L L H z z H E E h.{.XXoXXX|.k.H H ",
"f.f.~ 2 . n _./.G.G.>.b O         @ 7 o   & ; o       : M u.Z.a.3.0.-.  + k L W W L n._.`.`.t.E E P H H P E L ! x.].XX}.x.! L L ",
"f.~ W * o F J.:.F +.b.B.#.q 7     C i.; o F >.; . 7 B :.Z.,.B 0 = | 5.  o l L E E P n._.`._.t.E W P H H H H P L E h.|.h.E W E E ",
"~ W W # o F B.0 4 e q :.J.B.u.O   +.J.7 O X.b.7 o +./._.:.* G e.> i 6.  + l L L E L o.n.P.n.E W W P L L L P H P L ! M.Q L E E E ",
"W W E , . M b.w e.z.e q V.`./.@   @.J.7 o ' b.7 O :.`.`.#.@ w.'.4 i 3.  @ x H E H H L Q o.W E W W L P P L E L P E P ! L L E L P ",
"W ~ ~ 3   q i.w ^ w.w ' G.`.J.@   %.J.9 o ' b.7 O >.`.`.D.D > / O [ *.  $ c P H P H E L L P H Y W E L P P L L P E E W P E W E L ",
"W W W x   < u.B $ 0 X.Z._.`./.&   ,.J.9 o ' N.9 & <.`.`.`.D.+.6 - 6.[   # K H H L P E E P L P L H L P E L E L L E E W L E W E P ",
"f.~ ~ U   * <.b.+.u.G._.`.`._.%.' G.K.q o F J.,.%.G.`.`.`.`./.6.5.q.i   , L L P E E L W L W L L H H L W L P E E W W W E L E E E ",
"f.W ~ W + O X._./._.`.`.`.`.`./.G.`.K.q o F _././._.`.`.`.`._.Y.Y.0.& X a E L L L L H L L E W W E E H P E L E W ~ W W L E L E E ",
"f.f.f.~ *   M _.`.`.`.`.`.`.`.`.`.`.K.y o F `.`.`.`.`.`.`.`.`.E.Y.3.  o l E L P E L H P L E I.W L W H P L W E W W W E E L E E W ",
"f.f.f.T X O X.`.`.`.`.`.`.`.`.`.`.`./.#.; >.`.`.`.`.`.`.`.`.`.~.Y.7.. X a E P P P P P P L j.XXr.L H H P L E W W W Y R E E W E E ",
"~ ~ ~ f   ; V.`.`.`.`.`.`.`.`.`.`.`.`._._._.`.`.`.`.`.`.`.`.`._.Y.q.p   # K L P H K L E E [.oXM.L P L R W E W W Y L E E E W W E ",
"~ ~ W @ X C `.`.`.`.`._._.`.`.`.`.`.`.`.`.`.`.`.`.`.`._._.`.`.`.W.Y.3.  o g E P P W W W v. XoX.Xh.! E W E E E E E L E E E Y E E ",
"f.f.T   @ ,.`.`.`.`./.u.<.G._.`.`.`.`.`.`.`.`.`.`.`.K.y.u.K.`.`.Q.Y.0.6   3 P H H E j.|.oXoXoXoXoX}.k.L E E E W O.O.W W W L E W ",
"f.w.x   * D.`.`.`.`.>.*   +./.`.`.`.`.`.`.`.`.`.`.`.+.@   ,._.`.(.Y.q._   # K L L W m.}..XoXoXoX.X}.j.L E W W l.G.c.O.W E W ~ O.",
"f.f.3   9 _.`.`.`.`.>.; o X./.`.`.`.`.`.`.`.`.`.`.`.+.& O %./.`.).Y.U.-.  $ c L L E E ~ m..XoX|.v.~ E W W W W r.c.r.! ! L E f.W ",
"f.g.# . B `.`.`.`.`.G.+.' Z._.`.`._.G.G.K.G._.`.`.`.D.X.X.G.`.`.).Y.Y.5.O o g L P L L L H I.oXM.W ~ W P L Y W W W W W W W ~ ~ W ",
"~ ! + X ' `.`.`.`.`.`.`.`.`.`.`.`._.%.D X.X./.`.`.`.`.`.`.`.`.`.).Y.Y.7.- o f E L H P P P j. Xg.W ~ E W W W E W W W W L P E W W ",
"W ~ o o X.`.`._.Z.u.u.u.B./.`.`.`._.$.  O C /.`.`.`.`.Z.b.i.i.B.Q.Y.Y.7.5 X f L H H P H L ~ M.E W W W W W E E E W ! W W E L E W ",
"W W o o X.`.`./.:.y q q X.G.`.`._.%.B O 7 q $.Z.`.`._.+.b q q B T.Y.Y.8.5 X a L P P H H L E E E W E W W W R E E W W W E E R R E ",
"W W + . Z _.`./.B.,.>.:.i./.`.`./.M n $.y.C B b.`.`._.b.>.:.%.;.Y.Y.Y.6.& o f L P H H H L P E E W W W ~ E E E W W W W E E P L E ",
"W W 2   8 !._./.,.B B B +.G.`.`._.B.Z./._.G.V.J.`.`.`.>.F D D ` Y.Y.U.-.. + l H P P H z L L L E W W W W E E W W W E W L L E E E ",
"L L x   O ;.~./.y.C M n +.G.`.`.`.`.`.`.`.`.`.`.`.`.`.:.B N u V Y.Y.q.i   # J H L P z P L L P E W E W E E E W E W E L L E P H P ",
"E L L +   8 0.Q.^.G.G.G.J._.`.`.`.`.`.`.`.`.`.`.`.`.`.H.S.9.9.0.Y.U.=.o o a L K H H H P E E W W L P P l a 2 3 f S I L E W L H H ",
"L L E x   . p 0.E.Q.).`.`.`.`.`.`.`.`.`.`.`.`.`.`.).~.E.Y.Y.Y.Y.Y.2.%   # c E L E H H L L R W E P l $ o .     o o , k L E P H H ",
"W W E I d   . i 7.Y.T.Q.(._.`.`.`.`.`.`.`.`._.(.Q.T.Y.Y.Y.Y.Y.Y.&.O   . 3 J H P L H H E E L L L a X     & q 9 O     o g L L L L ",
"W W E E T 3     - =.d.Y.Y.Y.T.W.Q.~.~.Q.Q.E.Y.Y.Y.Y.Y.Y.Y.Y.0.i .       X , J L E L H L E E E g     < u./._._.G.@.:     l E E E ",
"E E W L W T f o     6 -.q.U.Y.Y.Y.Y.Y.Y.Y.Y.Y.Y.Y.Y.Y.U.9.) O     ;  .5     # A E P P P W W L .   q G.`.`._.`.`.`.B.9     A L E ",
"P R W ! W E W A # .     - ) 3.0.q.d.U.U.U.U.U.d.q.9.*.i O   . O ' J.).s.V o   $ x L P P W W 3   @ B.`._.G.V.Z.K._.`.B.;   # W L ",
"L W ~ ~ W E W W L g # o       & t ( } &.*.=.{ V 6 O     o : B B.`.`.`.).S.{ %   $ l L L W W +   M `._.V.b   o B V._.`.' X X P P ",
"E W W W f.W W W W W J g +   o O .               X @ ; q X.B._._._.`.`.`.).R.=.-   $ g P W E   . %.`.K.X.  X o   M b.Z.n . o z H ",
"W E W ~ f.W ~ E W E L K #   M X.B y q 9 7 9 q b D @.b.K._.`.`.B.B.`.`.`._.(.R.*.-   $ k E K   . y.`.G.B   * 3 o   7 9 X   1 z P ",
"W W W W ~ W ~ W E L L A #   :._.`./.G.V.B.V.G./.`.`.`.`.`.`.`.n n `.`.`.`._.~.U.&.-   # J K   . :.`.G.'   , x a +     o , J L H ",
"W W E W W W W W W W E A $   u._.`.`.`.`.`.`.`.`.`.`.`.`.`.`.`.C C `.`.`.`._.H.S.d.} &   , J o   D `._.,.O o g L l 3 3 f J W E H ",
"W ~ W W ~ W E E W W E c @   b._.`.`.`.`.`.`.`.`.`.`.`.`.`.`.`.b.b.`./.Z.`.G.@.4.T.q.) O   d ,   ; G.`.Z.n   2 K E P P L W E L P ",
"W f.W E ~ W E E ~ W W S @   B._.`.`.`.`.`.`.`.`.`.`.`.`.`.`.`.`.`._.u.F J.V.b ' Q.Y.9.i . o a   o +.`./.@.. # A L H L P L E H L ",
"W E W W ~ ~ W W E W f.A @   B._.`.`.`.`.`.`.`.`.`.`.`.`.`.`.`.`.`./.%.7 G.G.$.y.(.T.Y.3.-   # #   q /.`.u.& o x L P H P H P L P ",
"L E E E W W E ~ W W ~ S @   b._.`.`.`.`.`.`.`.`.`.`.`.`.`.`.`.`.`._.B.X./._.J.K._.W.Y.U.[ .   $   ; G.`.i.; o d P L P H P H L L ",
"L W W E W E W W W W E A $   <._.`.`.`.`.`.`.`.`.`.`.`.`.`.`.`.`.`.`./.J.`.`.`.`.`.Q.T.Y.q.5       9 /.`.u.& o g H Y L H Y E L W ",
"L L W E W L E L H L P A #   +./.`.`.`.`.`.`.`.`.`.`.`.`.`.`.`.`.`.`.`.`.`.`.`.`.`.(.T.Y.Y.| .   O ,.`._.%.. $ k H P H P E E L P ",
"H H W L ~ W E P P L W E ,   F /.`.`.`.`.`.`.`.`.`.`.`.`.`.`.`.`.`.`.`.`.`.`.`.`.`.).T.Y.Y.d.%   b _.`.Z.n   , c H H H z L E E L ",
"P H L L W E P H H H E W 2   b K.`.`.`.`.`.`.`.`.`.K.' M D.`.`.`.`.`./.i.X.n 9 F Z.).E.Y.Y.Y.(   & /.K.X.  o f P L L L L W W L L ",
"P L P L P L P H H P L W a o ; J.`.`./.' ../.`.`.`.i.7   i._.`.`./.$.:         ; u.).T.Y.Y.Y.3.  O ,....   3 K L E L L L L L E P ",
"E L E H H L H P H H L E g o o G.`._.B.  ; i.`.`.`.>.* O B.`.`.G.q     O : q C :.J.).T.Y.Y.Y.d..   O     , K W E E P E W E E W P ",
"E E L H H L P L L L E E x o   B._._.B.  & ,.`.`.`.+.O ; V.`.J.9   O n u.K.`.`.`.`.~.T.Y.Y.Y.Y.&     o 2 K W W W L Y E W W W ~ W ",
"P E L P P P P L E P L P J +   ,._._.B.  @ %.`.`._.' . y D.`.X.  o X._.`.`.`.`.`._.Q.Y.Y.Y.Y.Y.5   @ h L W W W W W W W W W ~ ~ ~ ",
"H E L P H P L E L E P L c +   #._._.B.  O #.`.`./.D   B G./.;   n _.`.`.`.`.`.`.).E.Y.Y.Y.Y.Y.%   a E E L E W ~ W W E W W W ~ W ",
"P L E H H P P P L L H H P $   B _._.N.  o ' `.`.G.n   ] J.D.@   :.`.`.`.`.`.`._.Q.Y.Y.Y.Y.Y.9.  . g L E L L W W W W E E W W W W ",
"L P L H P P P P H E H H H ,   q _._.N.  X D `.`.B.q   | !.C.O   :.`.`.`.`._.).Q.T.Y.Y.Y.Y.Y.`   o J E E E E W W W W Y L W W W W ",
"P L H H H P P H H P H L H 3 X @ !.~.p.    m ~.~.4.5 . 2.Y.R.5   q 1.F.~.~.Q.W.T.Y.Y.Y.Y.Y.7.=   , E E E W W W W W E L L W W ! W ",
"P H H H H E E Y P L P L P g o   q.Y.3.    u U.T.*.& % 3.Y.Y.`     : } T.T.Y.Y.Y.Y.Y.Y.Y.8.i   o c E P P W W W E W W E L W E W W ",
"P Y z H H L L L P P P P P l o   3.Y.3.    8 q.Y.} o o u _ { t     O } Y.Y.Y.Y.Y.Y.Y.Y.5.i .   f L E P L E W W W W W E E W W W ~ ",
"c K P Y P K L L P L P P E J o   =.Y.3.    6 9.U._       o O     u *.q.Y.Y.Y.Y.Y.Y.Y.Y.( o   3 L E E L P L E L E L E W E W ~ ~ W ",
"H H P P P H L L E W E E E K +   [ Y.3.    5 6.d.(   X + X     ` 9.U.Y.Y.Y.Y.Y.Y.Y.Y.9.6   , H P L W L L W W E L P E L E W W W W ",
"z P L P P H L E E E W E W S o   i { V     % V { r   + a s o   8 { { { { { { { { { ` 8 .   l L P L L E L L E L L L E E E W ~ W W ",
"z H L L P P L E E I P P W J o   . . .       . . .   $ j H ,     . . . . . . . . . .     3 L E L E I W E P P P P E W E E W W E W ",
"z H L L E P P Y P P P K L E f + X X . X o . X X X $ g H P H a o                     + g L L E E L L E L Y L P P L E W W W W W W "
};
