/* XPM */
static char *e1ebce44294445f2b5166c97a5dc2ee9722xCQ9QeQigZQc0[] = {
/* columns rows colors chars-per-pixel */
"64 64 161 2 ",
"   c #3D342D",
".  c #40352F",
"X  c #433731",
"o  c #463A33",
"O  c #4A3C36",
"+  c #4E3E39",
"@  c #523E3A",
"#  c #4F403B",
"$  c #52413C",
"%  c #5B433E",
"&  c #4E4A46",
"*  c #554641",
"=  c #5E4641",
"-  c #554944",
";  c #5A4A45",
":  c #554E4A",
">  c #5A4E49",
",  c #59514D",
"<  c #57524E",
"1  c #565555",
"2  c #5B5551",
"3  c #5B5856",
"4  c #5D5D5C",
"5  c #634644",
"6  c #654A45",
"7  c #684C47",
"8  c #604F4B",
"9  c #6B4E49",
"0  c #744D4D",
"q  c #6C524C",
"w  c #75534F",
"e  c #645652",
"r  c #675954",
"t  c #695A55",
"y  c #615F5D",
"u  c #735650",
"i  c #7B5452",
"p  c #7F5854",
"a  c #715851",
"s  c #62615F",
"d  c #73645F",
"f  c #656565",
"g  c #686766",
"h  c #6A6867",
"j  c #6C6C6C",
"k  c #706F6F",
"l  c #796D69",
"z  c #7C706C",
"x  c #737373",
"c  c #7B7B7B",
"v  c #7F7671",
"b  c #845456",
"n  c #835A56",
"m  c #875658",
"M  c #875D59",
"N  c #8A5E5B",
"B  c #8C575B",
"V  c #935A5F",
"C  c #82645D",
"Z  c #8C605C",
"A  c #90625E",
"S  c #955B60",
"D  c #9A5D63",
"F  c #B45E6E",
"G  c #856A61",
"H  c #8C6D65",
"J  c #946460",
"K  c #986764",
"L  c #9D6966",
"P  c #9F6A68",
"I  c #8F7067",
"U  c #94746B",
"Y  c #827976",
"T  c #867E7A",
"R  c #847A77",
"E  c #9C7A71",
"W  c #A66269",
"Q  c #AD666E",
"!  c #A46C6A",
"~  c #A86F6D",
"^  c #AB716E",
"/  c #B06770",
"(  c #BB6172",
")  c #B56972",
"_  c #BC6C76",
"`  c #AD7270",
"'  c #A17E75",
"]  c #B67775",
"[  c #B87776",
"{  c #B97977",
"}  c #BD7B7A",
"|  c #C36F7A",
" . c #C6707C",
".. c #C9727E",
"X. c #C37E7D",
"o. c #A28077",
"O. c #A48279",
"+. c #AA857C",
"@. c #AC887E",
"#. c #C7807F",
"$. c #D96C82",
"%. c #CD7380",
"&. c #D87987",
"*. c #DC7A89",
"=. c #D77986",
"-. c #E26F88",
";. c #E57E8E",
":. c #828282",
">. c #8B8481",
",. c #8F8986",
"<. c #9C8A8A",
"1. c #97918F",
"2. c #9A9592",
"3. c #9D9B98",
"4. c #A28F8F",
"5. c #B58E85",
"6. c #BC9389",
"7. c #A09C9A",
"8. c #A9A6A5",
"9. c #AFAEAB",
"0. c #B1AFAD",
"q. c #B2B0AF",
"w. c #BEBDBC",
"e. c #B6B5B4",
"r. c #CF8584",
"t. c #CC8382",
"y. c #D38686",
"u. c #D68888",
"i. c #DB8C8B",
"p. c #C3998F",
"a. c #C69A90",
"s. c #C99D93",
"d. c #CD9F96",
"f. c #E18E8E",
"g. c #E88090",
"h. c #E39090",
"j. c #E59191",
"k. c #E59191",
"l. c #E99394",
"z. c #ED9596",
"x. c #E99393",
"c. c #F29899",
"v. c #F4999A",
"b. c #F4999A",
"n. c #CEA097",
"m. c #D4A59B",
"M. c #DEACA2",
"N. c #E4B1A6",
"B. c #EAB5AB",
"V. c #F5BEB3",
"C. c #C1C1BF",
"Z. c #F9C0B6",
"A. c #FEC4B9",
"S. c #FEC4B9",
"D. c #C5C3C2",
"F. c #CECECE",
"G. c #D3D3D3",
"H. c #DDDDDE",
"J. c #DFDFE0",
"K. c #DFE0E1",
"L. c #E8E9EA",
/* pixels */
"x c c c c c c c c c x c c x x c c c c c c c :.x j x x x x j x x x x x c x h g h k j j k j h h h h g g g h g j h x x x h s f 4 1 ",
"c c c :.:.c c :.c c x c c x c :.:.x :.c :.c c c x x x x j c x x j x x x j h f g h g g x j g h h f g g g g g h h j j x j 4 f 4 1 ",
":.:.:.:.:.c c x x c x x x x x c c c c c c c c c x x x x x x x x j j x x h h h g f f j x x j h x g h f 4 y f h g h j x x g f 4 4 ",
":.c :.:.,.c x x c x x x x x x x c x c c c c c x x x h j x j x x x x x x j j g g g g h x k g g x j g 4 1 f f h f g h j x h f 4 4 ",
":.c c c x x x c c c c x x x x x x x x x x x x c x x x j x c c x j g h g j j j f h j h h h j h j j f 1 4 f h j g h h j j g h f 4 ",
"c x x x x c x x j x x x x x x x x x x x c c x x h h h g g x x h j j j h j h f g j j g s k x h j k h g g f x c j g f h k j h f f ",
"c c c c c :.x c x j j j x x x x x x x x x c x x x h h g h g g h g h j x x g 4 g j j h h j j h h j h h g g x x k g f h k j g f 4 ",
"c :.:.:.c c c :.c c x h j h h h x x x x x x x x j h h j j j x j h h k x j h g h x x x j g j h j j g 4 4 g x x k j h j j g g g f ",
":.:.:.:.c c c c c c c x x x h g j j x x k c j x x x j j h j j k j j j j h g j x x j j x j j x x x h f s h x j j x h j h h j j j ",
":.c c c c c x x c c c x x x h h h j x h j j x k x j h g h x x k x x x k h j j x x g x x x j x x x h g g g g h j x j x x x x x x ",
"c x x c c c x x x x x x j x j j k x h g g k j k h g h h g j k x j x c x x j j j x j h h x h j c x g j j j h g h j j j g j x x x ",
"c x x x x c x j h j x j j x j j j g h h 4 g h g f g h h j x j x x x c x c x g x g g j j x x x c x j h h j x j j x h h h j x j h ",
"c c c c c c x x x j x j x h x j j h h g g g h g g h h g g h j j j x c x x j h g h g x j j h g j x x j h h j j h x x x h x x x j ",
"c x c :.c c c c x x x j j x x j x j x h j h h j h h j x j h j h j x j j j x g g j h x x h j h j f j h x j x j j x x x j x x x h ",
":.c c :.c c c x c c c x c x h x x x x x h h h g g h j j h j x j j j j j j j j h x x j x j x j j g f j c j h x x x x c x j x x x ",
":.c c :.:.c c c c c c c x j j x c c c x j h j g h x x x x h j h j j h h j x j j j j g j j x c c x x g j x j x x c x x k x j x x ",
":.:.:.:.:.c :.c c c c c x j x x c c c x x h h j j x j j x j h j x x x h j x j h x j g h j h x x j x g h j x x x x x x x j x x x ",
":.:.:.:.:.c c c c c c c x x c c c c c x j j j x j j x j j j j j j x x x x x h h h h h h j x x x j g f h j x x x x x x x x x x x ",
"c c :.:.:.c c :.c x x c c x x c x c x x x x j x x j j j j j j h x h h j j x j h g j j x x g x j j h j x x x x c x j x x x x x x ",
"c c c c :.:.:.c :.:.:.:.c c c x k x j j x x h g h j x j h j h j x j x x j j x h h x x k k k j x j x x c x x x x x h x x x x x x ",
":.:.c :.c :.:.c c c :.:.:.:.:.c x c x x x x x j g h h j h j j j j j x x x x h g g x h j j j x x j h j j x x x x x c c c x j x x ",
":.c :.x c :.:.:.:.:.:.:.c x c x x c c :.c c c x x x x x h f h j j x x j g j x j j x j j x j x k x c x j x x x c c c c x x c c c ",
":.:.:.c c c :.:.c c c x x x x x c x c c c x x j j x j h f f j j j j x j g x x j j x x x j h x x x c x c x x x c c c x c j x :.c ",
":.,.c c c c :.:.c x x j j x x x c c x c x x x x x g x x x h g h h j j k j x j j j j j j g j x x x c c j j j x x c c c c x c c c ",
"c c c c c x :.c c x j j j j x x x x c c j j x h j j g j h h g h h j j x x x x x j g h h h j x x x c x x x x x x x c x j h x c x ",
"c c c c x x :.c c x x x j j j x x c c x x j x g h h g h j h j x x h x x j j x j g g h g j x x x c c x x x x x x x c x x x j x x ",
"c c c x x :.:.c c c x x j j x x c c x x x x s 3 : : > > ; ; ; $ $ ; ; ; ; > : 1 3 y 4 f j x j x x x x x x x x x x x c x x x x x ",
"c x c x x c :.c :.:.x x x x x x x f 2 * X   $ 9 n K ^ ^ ] { X.X.X.X.{ ] ^ ^ K n 9 $   X $ > 3 h c x c c x x x c x x x x x h j x ",
"x x c c x c c c c :.j x g < * X + w L X.h.v.v.v.v.v.v.v.v.v.v.v.v.v.v.v.v.v.v.v.v.c.c.h.X.L w + X * 2 h x x x x x x x j j x x x ",
"j j x x x :.c :.c f > O $ N } k.v.v.v.v.v.v.v.v.v.v.v.v.v.v.v.v.v.v.v.v.v.v.v.v.v.c.v.c.v.v.v.v.k.} N $ O > y x x x j j x h g h ",
"x j x j j c j > X 7 P u.v.v.v.v.v.v.v.v.v.v.v.v.v.v.v.v.v.v.v.v.v.v.v.v.v.v.v.v.v.v.v.v.v.v.v.v.v.v.v.v.u.P 7 X > g j x x j g f ",
"j j x c c 2 o L k.v.v.v.v.v.v.v.v.v.v.v.v.v.v.v.v.v.v.v.v.v.v.v.v.v.v.v.v.v.v.v.v.v.v.v.v.v.v.v.v.v.v.v.v.v.v.k.L o : j x g f f ",
"x x x x - 7 h.u.X.h.v.v.v.v.v.v.v.v.v.v.v.v.v.v.v.v.v.v.v.v.v.v.v.v.v.v.v.v.v.v.v.v.v.v.v.v.v.v.v.v.v.v.v.v.h.X.u.h.7 - j j j j ",
"x x x > 9 z.v.[ 9 o i h.v.v.v.v.v.v.v.v.v.v.v.v.v.v.v.v.v.v.v.v.v.v.v.v.v.v.v.v.v.v.v.v.v.v.v.v.v.v.v.v.h.i o 9 [ v.z.9 > x x x ",
"x x f + l.v.v.v.v.z.N $ k.v.v.v.v.v.v.v.v.v.v.v.v.v.v.v.v.v.v.v.v.v.v.v.v.v.v.v.v.v.v.v.v.v.v.v.v.v.v.k.$ N z.v.v.v.v.x.+ f j x ",
"h x $ ] v.v.v.v.v.v.v.n N v.v.v.v.c.v.v.v.v.v.v.v.v.v.v.v.v.v.v.v.v.v.v.v.v.v.v.v.v.v.v.v.v.c.v.v.v.v.M M v.v.v.v.v.v.v.] $ x j ",
"j h + c.v.v.v.v.v.v.v.k.X z.v.v.v.= r.v.L ~ v.v.v.v.v.v.v.v.v.v.v.v.v.v.v.v.v.v.v.v.! L v.r.= v.v.v.z.X k.v.v.v.v.v.v.v.c.O y h ",
"x 2 N v.v.v.v.v.v.v.v.v.6 #.v.v.v.~ 7 v.u.O z.v.v.v.v.v.v.v.v.v.v.v.v.v.v.v.v.v.v.z.O u.v.7 ~ v.v.v.X.5 v.v.v.v.v.v.v.v.v.M & g ",
"c > ` v.v.v.v.v.v.v.v.v.w ] v.v.v.c.@ r.v.q ! X.^ J i 9 = % $ O O $ % = 9 i J ^ X.! q v.r.@ c.v.v.v.] w v.v.v.v.v.v.v.v.v.^ * h ",
"c * #.v.v.v.v.v.v.v.v.v.p ` v.v.v.x.w 5 7 X + q C E 5.s.m.m.N.d.n.N.m.m.s.5.E C q # X 7 5 w l.v.v.v.` p v.v.v.v.v.v.v.v.v.X.$ g ",
"2   7 ~ k.v.v.v.v.v.v.v.M ! y.L 7 o a E p.B.A.A.A.A.A.A.A.A.A.E E A.A.A.A.A.A.A.A.A.B.p.E a o 7 L y.! M v.v.v.v.v.v.v.k.~ 7   : ",
"  4.9.l o N l.v.v.v.v.v.A   $ H s.Z.A.A.A.A.A.A.A.A.A.A.A.6.q X X q 6.A.A.A.A.A.A.A.A.A.A.A.Z.s.H $   A v.v.v.v.v.x.N o z 9.<.  ",
": O l e.H.v + r.v.v.v.v.K I A.A.A.A.A.A.A.A.A.A.A.A.5.o.U $ F $.$.F @ U o.5.A.A.A.A.A.A.A.A.A.A.A.A.I K v.v.v.v.t.O Y H.e.l o & ",
"x   D = ; C.0.O t.v.v.v.! H A.A.A.A.A.A.A.A.A.A.A.A.@.U G $ ( -.-.( $ G U @.A.A.A.A.A.A.A.A.A.A.A.A.H ! v.v.v.t.O 0.C.; $ D   g ",
"j   ;.g.Q O 8.0.$ x.v.v.{ a A.A.A.A.A.A.A.A.A.A.A.A.A.A.A.5.6     6 5.A.A.A.A.A.A.A.A.A.A.A.A.A.A.A.q { v.v.k.$ q.8.O Q ;.;.  j ",
"j   ;.g.g.%.O D.Y Z v.v.k.o V.A.A.A.A.A.A.A.A.A.A.A.A.A.A.A.A.E E A.A.A.A.A.A.A.A.A.A.A.A.A.A.A.A.V.X k.v.v.N Y D.O %.g.g.;.  x ",
"j   ;.g.g.g.Q > G.o z.v.v.i E A.A.A.A.A.A.A.A.A.A.A.A.A.A.A.A.+.+.A.A.A.A.A.A.A.A.A.A.A.A.A.A.A.A.U p v.v.z.o G.; Q g.g.g.;.  h ",
"g X &.g.g.g.;.$ D.r } v.v.i.O a.A.A.A.A.A.A.A.A.A.A.A.A.A.A.A.A.A.A.A.A.A.A.A.A.A.A.A.A.A.A.A.A.a.O f.v.v.} t D.$ ;.g.g.g.=.X j ",
"h + ..g.g.g.g.b 2.,.J v.v.v.t.O ' V.A.A.A.A.A.A.A.A.A.A.A.A.A.A.A.A.A.A.A.A.A.A.A.A.A.A.A.A.V.E O t.v.v.v.J ,.1.m g.g.g.g. .# j ",
"h * ) g.g.g.g.W l 8.i v.v.v.v.i.w O C +.m.V.A.A.A.A.A.A.A.A.A.A.A.A.A.A.A.A.A.A.A.A.V.m.+.C O w i.v.v.v.v.i 8.l W g.g.g.g.) * h ",
"x ; W g._ ..g._ 8 D.= v.v.v.v.v.v.i.~ n = . $ w H O.5.a.m.M.N.B.B.N.M.m.a.5.O.H q $ . = n ~ i.v.v.v.v.v.v.= D.8 _ g..._ g.W > h ",
"x , B g.0 Q g.&.X J.X c.v.v.v.v.v.v.v.v.v.z.u.{ P N i 9 % $ $ o o $ $ % 9 i N P { u.z.v.v.v.v.v.v.v.v.v.c.X J.X &.g.Q 0 g.B 3 c ",
"h s 7 g.= | g.g.O G.- t.v.v.v.v.v.v.v.v.v.v.v.v.v.v.v.v.v.v.v.v.v.v.v.v.v.v.v.v.v.v.v.v.v.v.v.v.v.v.v.v.t.; G.O g.g.| = g.5 h c ",
"g j X *.@ %.g.g.i 2.2.q c.v.v.v.v.v.v.v.v.v.v.v.v.v.v.v.v.v.v.v.v.v.v.v.v.v.v.v.v.v.v.v.v.v.v.v.v.v.v.c.9 2.1.i g.g...@ &.X c x ",
"h j : D $ | g.g. .O H.e u i.v.v.v.v.v.v.v.v.v.v.v.v.v.v.v.v.v.v.v.v.v.v.v.v.v.v.v.v.v.v.v.v.v.v.v.v.i.w e H.O ..g.g.| % D > c x ",
"j h f O 5 / g.g.g.m t H.T o = n P ` ] X.t.u.i.h.x.x.x.x.x.x.x.x.x.x.x.x.x.x.x.x.h.i.u.t.X.] ` P n = o T H.t m g.g.g.Q 5 O h x c ",
"h j g -   b g.g.g.;.i * 0.K.w.3.T z d t > $ O o o o o o o o         o o o o o o o O $ > t d z T 3.w.J.0.* i ;.g.g.g.b   > x x c ",
"h g f 4 O @ ;.g.g.g.g./ 5 o t >.7.9.w.D.F.G.H.H.H.H.H.H.H.H.H.L.L.H.H.H.H.H.H.H.H.H.G.F.D.w.9.7.>.t o 5 / g.g.g.g.;.@ O k x x c ",
"h k 4 g 4 X ) g.g.g.g.g.g.&.) S b 0 5 = @ + o o o o o o o             o o o o o o o + @ = 5 0 b S ) &.g.g.g.g.g.g.) X g c x c c ",
"4 j h k h 3 + *.g.g.g.g.g.g.g.g.g.g.g.g.g.g.g.g.g.g.g.g.g.g.g.g.g.g.g.g.g.g.g.g.g.g.g.g.g.g.g.g.g.g.g.g.g.g.g.g.*.O s x c :.c c ",
"f g h h h g : 5 *.g.g.g.g.g.g.g.g.g.g.g.g.g.g.g.g.g.g.g.g.g.g.g.g.g.g.g.g.g.g.g.g.g.g.g.g.g.g.g.g.g.g.g.g.g.g.*.5 , j x x c c c ",
"4 h j h h g j : @ _ g.g.g.g.g.g.g.g.g.g.g.g.g.g.g.g.g.g.g.g.g.g.g.g.g.g.g.g.g.g.g.g.g.g.g.g.g.g.g.g.g.g.g.g._ @ : x x x c c c c ",
"4 g j j h h j x y O % V ) |  . . . . . . . . . . . . . . . . . . . . . . . . . . . . . . . . . . . .| ) V % O 3 x x x x x x x x ",
"4 f h j x h j k h h 3 : * $ $ # # $ # # # # $ # # # # + # # # + + + + # # # $ # # # + # $ $ $ $ $ $ $ * : 4 h h j x x x x x x c "
};
