/* XPM */
static char *_a600bd121604d6a8a529918951de506d63sdE5LmwfxGbA5[] = {
/* columns rows colors chars-per-pixel */
"64 64 53 1 ",
"  c #777777",
". c gray47",
"X c #7E7E7E",
"o c gray50",
"O c #7C7C7C",
"+ c gray49",
"@ c #797979",
"# c gray48",
"$ c #767676",
"% c #7B7B7B",
"& c #808080",
"* c #727272",
"= c #6F6F6F",
"- c #747474",
"; c gray45",
": c gray44",
"> c #717171",
", c #6A6A6A",
"< c #656565",
"1 c DimGray",
"2 c gray43",
"3 c gray42",
"4 c #686868",
"5 c gray40",
"6 c #676767",
"7 c #6C6C6C",
"8 c #606060",
"9 c gray38",
"0 c gray36",
"q c #555555",
"w c #848484",
"e c #818181",
"r c gray46",
"t c gray39",
"y c #646464",
"u c #626262",
"i c #6D6D6D",
"p c #5D5D5D",
"a c #5A5A5A",
"s c #585858",
"d c gray51",
"f c gray53",
"g c #838383",
"h c #5F5F5F",
"j c gray37",
"k c gray35",
"l c #868686",
"z c gray52",
"x c gray34",
"c c #5B5B5B",
"v c gray33",
"b c #4B4B4B",
"n c #565656",
/* pixels */
" .XoOOO+@X #  $.+@%%@.&*=$-;:=>*-;-@*,<1=23=241,1555,673*;>4890q",
"+#XweX%o.O %@r+e& oX&@..:>**2@$*7$*;23t615y:26,,u66y<6,,i2>2puas",
"w&dfgX $ @rr- r#O@+oo+%%r *;>>*r23r 3435y93;>i1r51tahy151i*:<tjk",
"lOwzf#--#r* >$* % @X+@%r;>72>=;r>>$>2256<53>=56>i<pquu3y<17>4uhh",
"g%#%:>$.#@.r$>$;$*$r-;$.::*7;@.:3615=7784i11,3177txky1i5,12i61up",
"+ $$r@r 2::>r; $   ;# >-3,1<5:*1ii242,uyi758=>43:4y6y-@76t1=i388",
"%.+%#&$.*2=7>>>;  r*-.*>*1,<146464i*$<j52=13ii,,74,y5$ :6u,:24uc",
"+eg&O#%&# -32344$*;**-$;233277>i41:*i154$-ri6717=6hpy**:717:4658",
"&de&Xo++%#.*$-,62i:::O2;r;773=i:2==73<irr7= 27>::,u84:ii>173,2ii",
"w%+o#@-ro+#;>*3417:13i;=;i151**:;--=,77*;6>$:2->-1<<6<43;2::*$;*",
"or$%%#***;$:=:i7:;36<=i=161,63=>=$O;$22i*214r3=.$4ii7,5,7=262>*>",
"%r; $Or=1=-2=:ii2614h51yt<11i:i::-.;@*6>6572>*:@$i337*23>,,32*=1",
"#XO..@ >:2>=;3:22346564664,56,27i- r$71<15>i236=-*711=2,;:-3>$>2",
"@ @oXo.@r>ri2->7-i>47,131,3:=,=12:2=i:557,::3717t=,*=:i=;; 2*$*,",
"&XOoX@. .@#r#:3::*$:,,3653i71i:=2i722=i4**i$i-=76ti =3**-r@;2>>*",
"w@X&&#@#@O@%$7ir . ;247y, >r>,i,2i,4i;=2i2y==:@@**53>2:$O$-=:2>;",
"zgewz+&XO###$i*$##%;:33i=:2=>23i>-:,=>=4>2y423*$2-53ir--$-**=;; ",
"dge&doO##..#;$%+.%#*i27:73>=ii==2>*>;:,313,42:;>iy94i*$$r::>*-;;",
"+X&eeXoe+>*..$$.;%$r *i*:i=i3ii3*3327:=163i*>6*7=32: - @:i*;>- :",
"+oOoz&e#d&g&X..::>==*-,537:=1313*ir*=7>,4rr===2:=-;@**;>>7:>>:;>",
"edooXz&%XXe&w&d+*#**>:$75,133777=2-$ -,55:3i2i->i32i>*; $@@.r7;-",
"eoe$X&g&e&d&@$@  XO&Xo@ *r:*1u12=:>=<i*=2*i7:=$=:@;i>  @+#% :#+o",
"wzd.Oowlo%@$:*;rO #O+$*i=>21tti7ii;=6::=2>*:i3r: .; -$-... .=>d%",
"ef+%XO&e+;>2=*>>..-.r:*r>6>-*,54,i7=i;2=32i75i $$O.3==- %#@@-Oo.",
"O.O#X d#.$2===:;-$#.=2:377yi3351,22;-->>i6443=>- +;$--*  .-2,*% ",
"@Oo@-$go%;>-2==*r..;-=:<,361i4i>:3-:=2>i<545i*:: # -$*>;$.r->2*$",
"@#O$-ed@Xorri2>$o+   $,3<,:;43.$.:=24:ii448ui:=; *$rr:*--r.>;::*",
"@$#-:%gOgl>>:-$r&d+.##$=*-7:i2 $>2;2=,i236uu21;-@r@%;;*# - :>,7*",
"--O@$OoO+&=-;=*$X+eo@##;i$- >:**;3*-44751,yh=7i;$@- ;>$rr*r=2:>:",
"72-;r&oeO@:@#.$%.o&&X#r-rrO$ >*;=12:i6i6i1h1ii3>-;r-->-;->==:3<1",
":7;i=@$# *> #+ &.%++e+@.;@@;:=:==257=i23y5<,;:--24:;-;* .*7*$7<t",
"i7;#@r@;$*.-.#%X+&#+o#X+@> @@;**7;i26<:i:t<=2:-:7=*r>::$*><:>4tt",
"-->;@O%O#O@.@#%@ow++#.Xo%# %O@*->13i1<y1i66>>=2=i*r..$$=:2ii22i7",
"r-*: . OX#@# r%+%&O@#OOO+OX#X@$-*;i735i7;7t=:*>i=;-r-.;;:122;;:*",
"-:r=-r$X@%++=@ # rO#o@@r&X@Og%*2>=,3:tti;,33@#;:43=2-->r$,4i**2*",
"3:#..;%@#Or22=-*-$ +%.-%#O@++.;73377tuj5=233rr22313,:*;r$i<,i=-2",
"=r++.;.--r =>*-;-2 #O r$.-@+@->2,2=521y,722=- 2 *>71=;-:21t5j611",
";r.#&.$@. 3=;;>> -** $r:;r.  -==-;=2i,1=7<yi$%@;1>27*;>46tpjuh06",
".;-Xd %; >i:$ . @#r7:*>%..%@$rr2;r;2=:2:=,15;->:,>$r-$=7,jxuj9h1",
"%%##+.O.>ii2->%@*--*:>*-$@ >;;;r$.*,17i**773>>:7* @rr 27,0955125",
"-$;$% ##$ *-r@O.;>-r-;--*..$$.$;$rr>2:2==7i=t=*-;$.; ;>*764,,->6",
"-O.$Or;;r@**$r ;>*r@;>* .@@# @r***r*:-=*r::753i>r*2*r-**:312r:i,",
"#z.;+.-*O@#%@$$.: rr=#..@OX+%.-;*=>;$**>-**r:3,2>*r;==:;i573i;<i",
"-:-#OO. *@e@#-%# --r;$-$$O+# $>i=2=-*.. r@-**>i:7;>;2=i:345163i4",
"7;>*-$:+. O%r$@ - *=:*=>r$..r:>*:>:#;r>-;:2>264i:>>;>>7t13364577",
"=r *r:-r.r>:>#%$-# -->:*r ;>:=;=22 #. :*; +%*72:77:;=*2,5=25=;ir",
"2=#*r2>2y2,,- >#@:=2=r-;;;**=:-2=:;; ;:r-r.r#*2=,94i===<6454;*=,",
"<<.2O :3,7.;.-.*=;i2;>:*;>**--2*>>::;i;27;$;-$*:3t1*>=3<<<5hi::i",
"35i= :4ty5;$**r  r *>>:-i=*=>=,2>;#;15>i>-;:>r;*:*i3i*7,2i22rr=i",
"17,i,i4<y,= ;r:7=7,>-2*>>>23,77727>>:7>;:*;-;#r;$:23:$:=>22i7i>1",
"*2;557<65<7:>=14=36:-**-;>75y,=i:i:,i;>>** -$.$r-**::$$>*3>r>:r1",
"*>=5t24iii*:>=7<4=3,i72=1,5y<<u8<4566>61,,=*$  ;:>*>r@#-i=;- .O@",
",*7,144i:4=1;51<<y1273171y5<u<y<7,3,,1y27127;>r-: >=rr@.r$r$#OO+",
"<:i36,7>i:,2yt44>5<5,i2,35369ty95=116y7172:i42$* r-:=;@%@r*# @O ",
"4i>5y3,,i=<5,u2i211373,y43iiy85146645173i2,7*i$$::=*7=-$#-**r@@$",
"i3iy4,116><uuhi;=41=:u8j43=76,2,23273,2:3i,2-*=;>;>;:*-r@r=2r$r@",
"175u<44yt35755:.;15y1<<8<<,,7i4i2=:>i2$==:73=*6i2>>*$... ;2=-r @",
"369u5::=,2173=:->>75yhu6t9uu=yt5<4,7i=$2>=:***>==:33-.-;@r>i-*$@",
",=j55i2i34,113$r,1734<j6y0a99<344,667i*7214i*-r*::3i*;rr.#*>. #O",
"h34=1372,7,3>=>$>166tyu,y4jaxc76u69u14227,,7i7,>:;2,2>i;2:-;@o%#",
"u541157i>;>>:=>;r:,1,<4i2<xvbn,1168<,2>>,13,1231=r==$$*21>2> @@@",
"h,71462>:=$;r->>r>6y11154hssk949uu<6,i,rr27i432377*i=>i=2>>*#O##",
"h572412*>=13.:27=:,5y67tt9hp5158hy57,22;=i1=i>*=:=@>,,,,>r>;-r* ",
"a932*33=,,137>=i121466=3435t11490yy,i724,197>2;>22*==7,1=;$r   @"
};
