/* XPM */
static char *_b5debae15a94551fdce99abd1dbffa6XotdV0tTzZZdCdYP[] = {
/* columns rows colors chars-per-pixel */
"64 64 126 2 ",
"   c #020202",
".  c #080606",
"X  c #0B0B0B",
"o  c #130F0E",
"O  c #131313",
"+  c #1A1514",
"@  c #1C1C1C",
"#  c #241D1C",
"$  c #242424",
"%  c #2D2424",
"&  c #2B2B2B",
"*  c #312726",
"=  c #352A2A",
"-  c #392D2C",
";  c #343434",
":  c #3F3231",
">  c #3C3C3C",
",  c #443635",
"<  c #473837",
"1  c #4A3A39",
"2  c #444444",
"3  c #4C4C4C",
"4  c #554443",
"5  c #584644",
"6  c #5E4B4A",
"7  c #545454",
"8  c #5C5C5C",
"9  c #675250",
"0  c #6A5453",
"q  c #6F5857",
"w  c #735C5A",
"e  c #785F5D",
"r  c #79605E",
"t  c #646464",
"y  c #6C6C6C",
"u  c #7C6361",
"i  c #737373",
"p  c #7B7B7B",
"a  c #876C6A",
"s  c #8C6F6D",
"d  c #8E716F",
"f  c #937573",
"g  c #9C7C7A",
"h  c #A07F7D",
"j  c #A3817F",
"k  c #828282",
"l  c #8B8B8B",
"z  c #939393",
"x  c #9C9C9C",
"c  c #A78583",
"v  c #A98684",
"b  c #B38E8B",
"n  c #B7918E",
"m  c #BB9492",
"M  c #A4A4A4",
"N  c #ACACAC",
"B  c #B4B4B4",
"V  c gray",
"C  c gray75",
"Z  c #BBBBBB",
"A  c #C19996",
"S  c #C59D9A",
"D  c #C69D9A",
"F  c #CCA2A0",
"G  c #D0A5A2",
"H  c #D2A7A4",
"J  c #D5A9A7",
"K  c #D6AAA7",
"L  c #D4A8A6",
"P  c #D7ABA8",
"I  c #D9ACA9",
"U  c #DBADAB",
"Y  c #DBAEAB",
"T  c #DEB0AD",
"R  c #DFB1AE",
"E  c #DFB1AE",
"W  c #E2B4B1",
"Q  c #E4B4B2",
"!  c #E5B6B3",
"~  c #E6B6B4",
"^  c #EAB9B6",
"/  c #EABAB7",
"(  c #EBBBB8",
")  c #ECBBB8",
"_  c #EDBCB9",
"`  c #EDBCB9",
"'  c #C1C1C1",
"]  c gray76",
"[  c #C3C3C3",
"{  c #C5C5C5",
"}  c #C6C6C6",
"|  c gray78",
" . c #C3C3C3",
".. c #C8C8C8",
"X. c gray79",
"o. c #CACACA",
"O. c #CBCBCB",
"+. c #CDCDCD",
"@. c #CECECE",
"#. c #CDCDCD",
"$. c #D0D0D0",
"%. c gray82",
"&. c #D2D2D2",
"*. c gray83",
"=. c #D5D5D5",
"-. c gray84",
";. c #D7D7D7",
":. c #D4D4D4",
">. c #D8D8D8",
",. c gray85",
"<. c #DADADA",
"1. c gray86",
"2. c #DDDDDD",
"3. c gray87",
"4. c #DFDFDF",
"5. c #DCDCDC",
"6. c gray88",
"7. c #E1E1E1",
"8. c gray89",
"9. c gray90",
"0. c #E6E6E6",
"q. c #E7E7E7",
"w. c #E4E4E4",
"e. c gray91",
"r. c #E8E8E8",
"t. c #FEFEFE",
/* pixels */
"p p p p p p p p p p p p p p p p p p p p p p p i y p i i y y i i p i i p i y t y y y y y y y y y y t t t y t y y i i i y 8 t 8 7 ",
"p p p k k p p p p p p p p p p k p p p p k p p p i i i i y p p i y p i i y y t t y t t i y t y y t t t t t t y y y y i y 8 t 8 8 ",
"k k k k k p p p p p p p i p p p p p p p p p p p p p i i i i i p y y p p y t y t t t y i i y y p t y t 8 8 t y t y y i i t t 8 8 ",
"k p k k l p p p p p i p i p i p p p p p p p p p i i y y i y i p i i p i y y t t t t y i y t t i y t 8 7 t t y t t y y i y t 8 8 ",
"k p p p i i p p p p p y 7 > $ @ @ $ ; 7 y i p p i i i y i p p y y t y t y y y t y y t 7 > & @ + @ $ ; 2 t y y t y y y y t y t 8 ",
"p p p p p p p p y y 3 @     . O + .     @ 3 y p y y y t t y i y y y y y y y t t y 8 & .     O + X     X & t p y t t y y y y 8 t ",
"p p p p p k p p t @   O t x ] +.+.] M t X   @ 8 i y y t y y t t t y y i p t 8 t ; .   > k B ..+...B k &   X 2 y t t y i y y t 8 ",
"p k k p p p p t .   8 <.e.e.e.e.e.e.e.e.2.y     3 y y y y y i y y y i i y y t $   + M e.e.e.e.e.e.e.e.e.B +   $ y y y i y t t 8 ",
"k k k p p p t . X z e.e.e.e.e.e.e.e.e.e.e.0.z X . 8 y y y y y i y y y y y t $   2 ;.e.e.e.e.e.e.e.e.e.e.e...>   ; t y y y y y y ",
"k p p p p i +   x 0.e.e.e.2.x p p M ;.e.e.e.e.N . + 8 t y i i i i p p y y >   > 2.e.e.e.0.C l p l Z 0.e.e.e.<.2 . > i i i p i i ",
"p p p p p 2   p e.e.e.0.l +         X l e.e.e.e.p   & y t y y i y p p i i . $ } e.e.e.} 3           2 &.e.e.e.&.. . t t y i i i ",
"p p i p t O $ 8.e.e.8.7   + q g g 0 #   7 <.e.e.>.$   > & $ + O O + & > ;   x e.e.e.N X . < d h a < . + M e.e.e.p   ; y y i y y ",
"p p p p 2   p e.e.e.k   < F _ _ _ _ U <   y 0.8.x +       X + @ + + .       t C e.&.$ o f / _ _ _ ( f . O ;.e.e...$ + y i p i y ",
"p p p p & . Z e.e.... # K _ _ _ _ _ _ U + O p &   . > k B } &.;.;.+.C x t @   X t 7   f ) _ _ _ _ _ / w   i e.e.0.t   t i p i y ",
"k p p p O $ <.e.e.p   f _ _ _ _ _ _ _ _ u     @ p <.e.e.e.e.e.e.e.e.e.e.e.0.M 7 .   + ! _ _ _ _ _ _ _ ! - $ 2.e.e.x   2 y i i i ",
"k p p p . & 0.e.e.7   S _ _ _ _ _ _ _ b O . 3 ] e.e.e.e.e.e.e.e.e.e.e.e.e.e.e.0.k +   w R _ _ _ _ _ _ _ 9 O ..e.e.B   ; i y i i ",
"k k k k   & e.e.e.2   K _ _ _ _ _ ) v o . l 8.e.e.e.e.e.e.e.e.e.e.e.e.e.e.e.e.e.e...2   : U _ _ _ _ _ _ e X } e.e.Z   & y i i p ",
"k k k k . $ 8.e.e.8   n _ _ _ _ _ g . O } e.e.e.e.e.e.e.e.e.e.e.e.e.e.e.e.e.e.e.e.e.0.3   , _ _ _ _ _ _ 5 + &.e.0.M   > i p i i ",
"p p k k + + &.e.e.z   0 ) _ _ _ G O X M e.e.e.e.e.e.e.e.e.e.e.e.e.e.e.e.e.e.e.e.e.e.e.<.7   r ( _ _ _ S @ > 0.e.e.l   3 i p p i ",
"p p p p >   M e.e.2.$ X b _ _ ~ < . k 0.e.e.e.e.e.e.e.e.e.e.e.e.e.e.e.e.e.e.e.e.e.e.e.e.<.;   g _ _ R :   x e.e.2.3 . y i y i i ",
"k k p p 7   t e.e.e.N . # f / h . 7 2.e.e.e.e.e.e.e.e.e.e.e.e.e.e.e.e.e.e.e.e.e.e.e.e.e.e.N   = W P 5   ; 8.e.e.B O $ p p y i p ",
"k p k p p & . } e.e.e.M @   O X O ;.e.e.e.e.e.e.e.e.e.e.e.e.e.e.e.e.e.e.e.e.e.e.e.e.e.e.e.e.t   #   . t ;.e.e.0.2   7 p y p p p ",
"k k k p p t . ; 2.e.e.e.+.i O   t e.e.e.e.e.e.e.e.e.e.e.e.e.e.e.e.e.e.e.e.e.e.e.e.e.e.e.e.e.<.O   ; M 0.e.e.e.M   + i p y i k p ",
"k l p p p p ;   8 8.e.e.e.6.> . Z e.e.e.e.e.e.e.e.e.e.e.e.e.e.e.e.e.e.e.e.e.e.e.e.e.e.e.e.e.e.t   B e.e.e.e.B @ X 8 p p p p p p ",
"p p p p p p p $   2 ] e.0.}   > 8.e.e.e.e.e.e.e.e.e.e.e.e.e.e.e.e.e.e.e.e.e.e.e.e.e.e.e.e.e.e.B . 3 e.e.8.k . . 8 p i y y i p p ",
"p p p p p p k p &   @ z +.x   k e.e.e.e.e.e.e.e.e.e.e.e.e.e.e.e.e.e.e.e.e.e.e.e.e.e.e.e.e.e.e.;.@ @ 8.B t   . 2 p p p p i y i p ",
"p p p p p k k p p 2 .   + @ . ] e.e.e.e.e.e.8.k 3 p <.e.e.e.e.e.e.e.e.e.e.B 7 8 ] e.e.e.e.e.e.0.>   & .   $ t i i p p i i y y i ",
"p p p p y p k p k k y ; .   + &.e.e.e.e.e.e.p       8 e.e.e.e.e.e.e.e.e.<.X     $ <.e.e.e.e.e.e.t     $ 7 i i p p i p i i y y i ",
"p p p p p p p p p p y i i @ $ 2.e.e.e.e.e.0.; . Z $ + e.e.e.e.e.e.e.e.e.M   z p   Z e.e.e.e.e.e.p   3 p i i p p p i p y y i i i ",
"y y p i p p p k p p y p p @ & 0.e.e.e.e.e.e.M x e.M x e.e.+.y 2 7 x 0.e.<.l 2.<.l 2.e.e.e.e.e.e.k   2 i p i p i i i y y i y t y ",
"y y i y y p p p p i i p p $ & 8.e.e.e.e.e.e.e.e.e.e.e.e.+.;       X p 0.e.e.e.e.e.e.e.e.e.e.e.e.k   2 i i i i p p i y i p y t t ",
"y y i p p p p i p i p p p & $ <.e.e.e.e.e.e.e.e.e.e.e.<.& . d H m * . M e.e.e.e.e.e.e.e.e.e.e.e.i   7 p i i i p i i t y i y t t ",
"p p i i p p p p 8 y p p p ; O ..e.e.e.e.e.z p p p p N B   4 _ _ _ K . 8 8.k p p p p ] 0.0.e.e.e.7   t p p p p y y y y y y y y y ",
"p p i y p p p p X & p p p 2   M e.e.e.e.8..         > M   e _ _ _ _ + 2 }           t 0.e.e.e.8.& . i p p p i i y y y y i i i i ",
"i y p y i p p p . & p p y y   2 0.e.e.e.e.+.C C Z C ;.C . - _ _ _ b   y e.} C C Z C 2.0.e.e.e.C . @ y y p i i p p y t y i i y i ",
"y i p p p i p p . & p y y y + X C e.e.e.e.e.e.e.8.M 8 } 3   6 j s o X Z l p ;.e.e.e.e.e.e.e.e.y   2 y y i i i p p y t y y y p y ",
"y p p p p i p p . & p y i i 2   2 e.e.e.e.e.e.;.7 . . C <.8       + x 0.7   $ l 0.e.e.e.e.e.Z X @ y y y y i p i y y t t 8 t y y ",
"i p p p k p p p . & y y i i y +   x e.e.e.e.x X   ; B e.e.e.Z k x 8.e.e.e.i .   7 2.e.e.e.2.@   3 i y y i i i y t t 8 8 t 8 8 t ",
"p i i p k p p i O @ y i p p p y + X k 8.e.;.@ + k 8.e.e.e.e.e.e.e.e.e.e.e.e.Z 7 . p e.e.+.>   ; y i p p p p y y y 8 7 t 8 t 8 y ",
"p p p p p p p p @ X y y p i p p t X . 7 ;.0.C +.e.e.e.e.e.e.e.e.e.e.e.e.e.e.e.0.Z <.0.l $   > y i p p p p p y y y 8 t t t y y t ",
"p p i p p p p p ;   y p p p p p i 7 +   & l 2.e.e.e.e.e.e.e.e.e.e.e.e.e.e.e.e.e.0.C t .   ; y p i p p i p i i i y t t y y p i t ",
"p p p p p i i i 3   > i p p p i i i i 2 .   X 3 l C &.8.e.e.e.e.e.e.e.0.2...M p &     $ 7 y y i p i y i p i i i i y y y p i y y ",
"p k p i p p i i y . + p p p p p y p p p &   +     X & 7 y p k l l k p t 2 @     O . . y i y y y i i p i y y y i y t y y y i t y ",
"i i i p p p p p i $   8 p i p p p i p y . @ Z M p 3 & X               . + > t l Z p   2 i i y i y i i i y y y y y y t y t y y y ",
"y i i i p p i p p 7   $ i p p p p p i >   p 0.8.;.M Z ;.+.C B N B Z ] ;.&.M ] 2.8.2.$ + y t y y i i i i i i y t y y y t y t y y ",
"y p p i p i p p p p $   3 p p p p p p $   } e.C $     t <.2.2.2.<.2.2.M +   . 7 8.e.y . 3 y y i y y i i y i y y t y y t y i y p ",
"y y p i p y i y t y t . . 7 i p p i y X $ 0.0.$ X k 7 . x e.e.e.e.0.2.& . k >   x e.M   > i y y y t y y y y y t t y t y i i y y ",
"t t p y p p i y y y p 2   . y i y i 8 . 8 e.+.  3 t.8.  2 0.e.e.e.0.] . 2 t.B X i e...  & p i i y t y i i y y t t t t 8 y y y y ",
"y t y y p i y t t t i p > . + 8 p p t   p e.8.. ; t.t.; . x e.e.e.8.2 . B t.z . l e.<.  $ p i i y i y y y i y y y y y y p p y y ",
"y y y y y y y t t y y p i 2   . 2 y 8 . y e.e.7 . +.t.Z . + 8.e.e.p   8 t.t.2   ] e.;.  $ p p i p y y y i p i y i y y y y y i y ",
"i y i t t y t t t t y i i y 2 .   $ 2 . 3 e.e.Z   7 r.t.y   C e.e.; O <.t.B . ; 0.e.]   & p p p i i i y i p p i i y i p i i p y ",
"i i y t t y y y y y i i i y y 8 & .     X 2.e.e.y   2 N & . &.e.e.7 . k M O @ B e.e.l   2 p p i y i i i p p p p y y i i p p p p ",
"y i y y y t y y i y y y i t y t t 2 $ .   x e.e.&.;       7 e.e.e.Z +     X x 0.e.0.2 . 8 i p p y p i y p p p p p p p p p p p p ",
"t y y y t y y i y i y y t t y y i t t 3   & <.e.e.<.x i x 2.e.e.e.e.} p p Z 0.e.e.z . & t y p i p p i y y i p p p p i p p p p p ",
"y y i t t y y y y y t t y t y y y y y 7     2 0.e.e.e.e.e.e.e.e.e.e.e.e.e.e.e.e.x .   & i y p p i i y i y y i p p i i i p p p p ",
"y y y t y y y y t i t t t 8 y i y y t + . %   ; B 0.e.e.e.e.e.e.e.e.e.e.e.e.&.k . X %   2 i y i i i i i y i i p p p y y p p p p ",
"y y t t t y y t t y t y t t y p i y 8 . 1 R 0   . > p Z 2.e.e.e.e.e.0...x 8 +   % b A   & i t y y i i i p p p p p i y y i p p p ",
"y t t t t i i y y y y y y y y i i i t X + c b 0 X     + & > 7 7 7 2 ; $ .     % g m q   ; i i y y i y y p p p i p p i y i i p p ",
"y y 8 t t y y y y y y y y y p p y y y 2 .                 X X . X X X                 $ t p p i i i y y i i p p p p i i p p p p ",
"8 y y y y y y y y y y y i y i p i y t t 7 7 3 7 7 7 2 2 2 7 t 8 8 t 8 3 7 7 8 8 7 7 7 y y y y i i i y y y i y i y y i i p p p p ",
"t t y y y t y y i i i i i y i i p i y y y t t y y t 7 7 2 7 y y y t t t y y i i y y y y y y y y y p y y p p i y y i y i p p p p ",
"8 y y y y t y i i y p i p p i i p i t t y y y t y 8 8 8 8 t y t t t t t y y y p p y y y t y y y y y i y y i y y y i i i p p p p ",
"8 t y y y y y i i y y y p y y y y i y t t t y t t t 8 8 t y t t 8 t t y y y y i y y y y y i i y y y p i y y y y i p i i i p i p ",
"8 t y y i y y y y y y y y i y y y y y y t t y y y y t t y y y t 8 t t y y y y y y y t y i y i i y y i y y y y y y i p p p p p p "
};
