/* XPM */
static char *_157e14173f647fdad36a01db190e644bdewouxgex0oJCM2[] = {
/* columns rows colors chars-per-pixel */
"64 64 134 2 ",
"   c #FCCCCF",
".  c #FDCDD1",
"X  c #FBC8CE",
"o  c #FCCDD1",
"O  c #FDCED2",
"+  c #FED1D4",
"@  c #FDD1D3",
"#  c #FFD2D5",
"$  c #FCCCCE",
"%  c #FDD0D2",
"&  c #FCCCD0",
"*  c #FCD0D3",
"=  c #FCCBCF",
"-  c #FDCFD2",
";  c #FDD1D4",
":  c #FDD0D3",
">  c #FCCACE",
",  c #FDCCD1",
"<  c #FCCCD1",
"1  c #FBCACE",
"2  c #FED1D5",
"3  c #FCCED1",
"4  c #FCCFD2",
"5  c #FED0D3",
"6  c #FCCDD0",
"7  c #FED0D4",
"8  c #FDCBCF",
"9  c #FDCED1",
"0  c #FED2D5",
"q  c #FED2D4",
"w  c #FCCFD1",
"e  c #FFD3D6",
"r  c #FDCFD1",
"t  c #FDCBCE",
"y  c #FDCFD3",
"u  c #FDCBD0",
"i  c #FCCED2",
"p  c #FECED2",
"a  c #FCCACD",
"s  c #FDCDD2",
"d  c #FDCCD0",
"f  c #FCC8CD",
"g  c #FDD0D4",
"h  c #FDCDD0",
"j  c #FDD1D5",
"k  c #FBC9CE",
"l  c #FCCED0",
"z  c #FCCBD0",
"x  c #FDD2D4",
"c  c #FCC8CC",
"v  c #FCCBCD",
"b  c #FECFD3",
"n  c #FDCCCF",
"m  c #FFD1D4",
"M  c #FBCBCF",
"N  c #FCD1D4",
"B  c #FDCACE",
"V  c #FBCCCF",
"C  c #FDCDCF",
"Z  c #FDCACF",
"A  c #FCCBCE",
"S  c #FBC9CC",
"D  c #FCCACF",
"F  c #FECDD2",
"G  c #FBC8CB",
"H  c #FBCACF",
"J  c #FCC9CD",
"K  c #FDCED3",
"L  c #FBC9CD",
"P  c #FBCCD0",
"I  c #FECCD1",
"U  c #FECFD2",
"Y  c #FECCD0",
"T  c #FFD2D6",
"R  c #FBCDD0",
"E  c #FFD3D5",
"W  c #FCCFD3",
"Q  c #FECCCF",
"!  c #FECED1",
"~  c #FDD2D5",
"^  c #FED3D5",
"/  c #FDC9CD",
"(  c #FECDD1",
")  c #FCC9CC",
"_  c #FACACE",
"`  c #FBCDD1",
"'  c #FDCACD",
"]  c #FAC9CE",
"[  c #FDC9CE",
"{  c #FBCED1",
"}  c #FCC9CE",
"|  c #FBCFD2",
" . c #FCD0D2",
".. c #FDD3D6",
"X. c #FECBCF",
"o. c #FCCDCF",
"O. c #FCCFD0",
"+. c #FED3D6",
"@. c #FBCCD1",
"#. c #FFCED2",
"$. c #FBC7CC",
"%. c #FBCBCE",
"&. c #FCD1D3",
"*. c #FCD2D4",
"=. c #FCCDD2",
"-. c #FED1D3",
";. c #FED2D6",
":. c #FACBCE",
">. c #FDC8CE",
",. c #FFD1D5",
"<. c #FFD0D4",
"1. c #FBCED0",
"2. c #FECDD0",
"3. c #FBC8CD",
"4. c #FBCED2",
"5. c #FBCACD",
"6. c #FBC8CC",
"7. c #FBC7CB",
"8. c #FECED3",
"9. c #FDCED0",
"0. c #FECBD0",
"q. c #FBD0D2",
"w. c #FAC8CC",
"e. c #FDC8CC",
"r. c #FDC8CD",
"t. c #FCC7CB",
"y. c #FDC9CC",
"u. c #FBCDCF",
"i. c #FCCED3",
"p. c #FECED0",
"a. c #FDD3D5",
"s. c #FBCBD0",
"d. c #FDC7CC",
"f. c #FCC7CC",
/* pixels */
"  . X o O + @ + # $ % &   O * = + - + + ; : = > , < 1 1 2 + 3 O ; # 4 5 6 7 & # 5 8 9 0 # q 8 w + e 0 : q O r . t < 0 > y 4 u i ",
"& O 1 9 p + - + # a - & = s * d ; 4 + : + i > . = 8 f & 0 + 4 y g 0 ; : 6 7 = # 5 > . 0 # + h 4 + e # 4 ; O r . t < j > i O = i ",
"< s k h 9 q - + # 8 l z   O * h x : + 0 + 3 c O v 8 c   0 + 4 @ - + : : 6 b n # 7 > 9 0 # ; d O 0 e m : @ - r d > M N B O O V 4 ",
"C h Z o O + + # # 9 O z i : ; o x o 7 + : 4 > 9 a A S D + # : ; ; ; : : = F 6 g 7 n b e # + 8 3 0 e 0 5 2 b : . G > : z 9 i o O ",
"h O H i O # + # # . 9 & s : : < x o 7 : + ; = O D h = u + # y : g g : y . p 9 i 5 8 b # # 0 d 3 + e 0 + 2 5 - h J 3 ; 3 u & & 6 ",
"o K L d . # + # # D o & d y - s ; & 7 : 0 i P - z : 4 I m + - : : : : : & s . O 5 = U 0 # # h 6 5 e + + 0 0 3 Y J O : o Z o & o ",
"o . . Z . + : 0 #   & 8 A : - o + o 5 U T 3 & i & : + D 5 + 4 : + + R + 3 - : O 5 A 5 # # + Y l 7 E # 5 0 + 6 d V * 0 h a d . o ",
"h . o Z . : 5 0 # h o = = : p W + o + - T . i O . ; 7 8 7 2 i g ; + o + 3 O y y 5 > : 0 # # Q 6 7 E # + q 5 3 . A 4 ; . D . 3 O ",
"d ! o & o s 5 + # s & & z y F o : & + O # , W O 3 : o = + 5 3 : 4 + - + o 9 b y 7 D : + + # B h 7 e # y + . i ! A 4 ~ 6 i - - O ",
"a 9 O o o 4 : 5 5 o V 1 z : O : @ & : O ^ , . b : 9 y d m p < : i + - ^ 3 U - y + d 5 # # 7 / n y # # O + . O ( J - 0 b o : + - ",
") 9 s . . 4 O 5 : o 6 _ < + . i @ 3 - 4 ^ . z + 2 5 * u m U 3 : ` + . ~ 6 O i : + , b # # 7 c   : 0 # 3 ; . 3 h c O 0 b , : + : ",
"' 9 . s O + q : : 9 & ] o : ( 3 x 4 y 4 ^ F . + : h : [ + y + b 3 + 9 ^ = i i : + & y 0 # : c   : : # - j 9 { I c O 0 y d o y - ",
"A . . . o : + : + . & } 4 @ - i @ W * ; # p - 5 4 h y > 5 - 5 p , + y # = o o 5 0 o - 0 ~ - [ h : e # - + & i h c O 0 9 & = , | ",
"> h . . . ; + : + . z B - ; : - + 4 * ; e - y - y 9 - / 7 O 5 b = ; @ 0 M K i 0 2 . o 0 q - u l : e # : ; d 3 d B y ^ & = , o  .",
"1 C . . . + 7 : # ( d B 9 ; : 3 0 4 * ; ^ y b - g & % c 5 p + b & g 5 + 6 o < # 7 = i ..# b d 9 : E # y 7 u W > X.* ~ .   9 w * ",
"J o.o , o + : b # , D M 9 + 5 W 0 # 3 ; # : b - : O : = 2 O ; : 3 + p # o 9 o # 7 , W # # + u O.+ # # ; + . 4 B a : +.i d o 3 4 ",
"a h i d 6 + y b : M k 1 O : - 4 : 0 y 0 # 4 b : : y - u 2 - ; g O 0 5 0 @.9 . # 5 , 3 + # g 8 l + # # 9 ; O h > & : ^ O i y . i ",
"' p O , 6 + i #.+ O & D p ; - - ; 0 y 0 0 : O + y ; K D m # : : - 0 5 + i y W 0 p $.o ; 0 : B d 7 # # O 0 F & o %.@ ^ s o g 3 O ",
"h 9 i 9 3 q * U # ( D M : 2 - { g ~ y &.# : ` + : # : f b # + y Z + 7 *.z O s 0 b d . q # y   8 4 # # o q O 4 Z A y ^ o n 9 i + ",
"h 9 o O o 0 + b # F & & ; 0 O 3 y 0 `  .# 7 3 ; : # : & + # # : } + - : & - i 0 b 6 . q # 7 w   4 # # d + & 4 b = - 0 o d . 4 % ",
"%.6 o O o 0 ; : # s z o : q i O 0 # O - # + : ; + e h 6 ; # # - > + o : - : i 0 y h p 0 # + 3 n 4 E #   ; b 6 7 u - 0 O 4 b g : ",
"A O o 4 i ^ : 0 # 9 A o * ; O i y # O y # + O @ - T n a + + # 5 G ; : : < U =.# . - . 0 # ; 9 n w # # o ; + : O d - + . 4 4 0 ; ",
"k O o : 4 ^ 9 : # p J P i @ O i ; 0 d y # + y ; O +.. A + + # + n ; : 4 o . P 0 & o . q ; 5 6 t : E E & : 5 y 9   + 5 , z d q ; ",
"z -.& : - e o + # - = A =.x + O 0 ~ d - # 0 4 @ O ;.O z : ; 0 b 5 + : 4 o h :.^ . =.* x + 9 = a : ^ ^ & : 5 - 3 n + 5 O O . + q ",
"o - i g ; # O q + O   >.d ,.+ O + 0 . : 0 # y * O ^ O = u y # U : * - - < h A # 9 . ; q + O 9 r O # # z + y = - h ; : O o i ; -.",
"  . : y : # O 0 7 p M } O q y 4 O q O + # : i + 9 +.9 P ; 0 # y 4 : O 4 O . > 0 d h - x + O 9 - o 0 #   7 . d @ 8 + 7 i & y 0 + ",
"a - # - O q o @ <.b = A 4 0 : ` . + - + # * g # W 0 9 i y ; + b O y 9 4 o F D ^ d ( - x + ,.. . o 0 #   7 . - + } y 5 4 . y q + ",
"} b m o 9 # o . + O L > - q # 1.. - : 5 # : : : 3 0 O & - ;.# 2.9 + 4 i : - z ^ d : y + 7 + 2.  d +.# & ; o - - A * : - 4 o # : ",
"3.5 b < - ^ : & 7 b 1 } O + + l h + . 5 # : O . 4 0 b & O 0 # p . + y i y y & ^ , - i + 7 + d 6 d +.# & + - : % a : : 4 9 6 + % ",
"D 5 p o 3 * ; h g 7 , [ i + 7 r h ; 9 5 # 4 . H 5 # O 8 . W # . 4.: s i y O & ^ , o i 2 + ; O k n ;.# & + O : ; 5.; y  .C h + r ",
"z 5 + O 6 & * O 7 0 o [ i + * i - 0 . + + y y Z ; # O z . ; # O :   . O 4 O h 0 . i o 0 0 + - 6.u 0 # d g =.: : J ; U - { o + . ",
"P 5 + : o d * o 7 x o D , x * i i q O q 5 y 7 z . 0 y D i ; # O 7 3 : O - y - q 3 O O 0 # 7 9 7.& 0 # d : o 8.w J ; b - { O + h ",
"z : 0 W o .  .< + ; * Z z x : 4 ` x b E : y + & & 2 :   * 5 # - . + : & : 7 5 x o p y 0 # g o 7.6 ; # O 7 . ; O A ; b h i 9 : 9.",
"< 5 0 W o ` : 3 ; @ | 0.O 0 ; - 6 x y 0 : y : z P q # o - 2 # U A 0 ; 8 g @ + + y b 5 # # i 3 7.4 m # y 7 ( 3 b = x r o.. 6 q.h ",
"f 5 # 4 i i ; i b @ 4 & 3 x ; y O + y 0 0 i - D o ; # =.4 2 # - > E + > 4 - ; ; i - 7 # # O y w.: 5 # q 7 . 4 + = x o & O - * d ",
"7.% 7 O W - 7 - b : w o 9 ; + * < + ; # + P o 3.o ; + =.- : + - z 0 + > 4 : + ; g - + # # . y } o p # O ; . y : . x . & O : y d ",
"a U 7 9 i O y - O : 3 0.p x 0 : d q 7 0 # o . e., + 5 o y y & 4 n x - > o y @ ; - 0 : # # o : J > - e o + ( + - n ; . 3 , U O   ",
"B 5 # : : = O - O : 3 u p ; ; - O + b 0 # < O r.o + # O i W & U h + i > : . & x - : - # # - - t.D - # i + o : : 8 ; & = u O O = ",
"} + # * 7 } : : O ^ o d p ; ; : b # @ q 0 , - e.O 2 + 9 3 . < 5 9 : i 8 : b * ; 5 4 - # # - : e.D - # o ; o : 7 D ; o > u O .   ",
"J + 0 @ + D # 7 b +.8 , . + # * 9 # ; ; 4 o O y.- m 5 8 M   h 7 : + o u : : O g y - 5 +.# O  .a A - # n + O y : = q o o u - & B ",
"6.9 # ; q H + y b +.o d O : # y - q b + 4 o U } - + ; 8 u.x - - ; b . d : - R : - : 5 0 + . - A = ( # = 2 O - o u ; o + , - - & ",
"A 5 # + 0 < + U : ^ O , i + + ; : ; b 0 * o - D : y @ 6 l * 9 y g ; - d : U 6 : y ; : 0 + . -   u I # = + O s 6 D ; o 7 , - - & ",
"o + # m # d ; 9 ; 0 O & 4 + 0 : O y + # : ` : o &.i ; 4 9 j s i + ~ - 6 4 ! h ; y + + # + , y & d I e Z + p O o B q s y d O 5 r.",
"J : # # # & + . % ^ p ( + + 7 ; o O : 7 - i : i : y 0 3 6 ;.: 3 5 ^ O n - 9 : @ - # 0 # # d U A 8 n e 8 g , - o D ; . o ( i - 3.",
"B : # + 0 o # h r 0 p F + 0 5 * i O : O 4 - - i : i + O h i.+ O 2 ^ O n O p 5 @ y # + E # & 5 > 8 8 e d g < 4 : H + . o ( - O P ",
"O m # : 2 + # d r # : ` 4 0 y * O o : y - 4 - : : O ,.y O * ! O 7 m y o 4 9 + ; : - : 0 : o : o = n e z : d O + Z + ! r b ; . > ",
"& 5 # 5 + # + D : 0 5 i i 0 5 W - & b - + - # + : : # y - W 9 . : # : & 4 . + @ 4 - : # - d + & > n # d + d d : Z + . p.b : O J ",
"& y # : + 0 # . - # 7 O i ; 0 W : 5 + y 0 o 2 + 9 : m * - i O . ; + : z - p 2 : 4 : : # 5 , 7 . J n # d ; d , ; Z # . n b O y & ",
"8 j # y ; * # y * # g - o ; # 4 : 5 0 - + h ~ # . : + { 1.= : y : + @ u O 5 ; + : + + 0 + O 7 O t 9 # Y + 0.Y q > m ! 9.- : , n ",
"3 : # - ; o # 9 % 0 g . u 5 # % : - a.y 0 n + + . : + 5 ; 6 + ; - # ; Z 9 7 + ^ 7 # + # * 9 ; i t ! E d 7 , h ; } m ! n . . s.8 ",
"& - # y ; i # 2.h 0 g   d 5 + 4 y O 0 3 0 d 5 m O : + + + 6 7 ; - y y 8 9 y ; 0 U 5 7 0 + d + i n 9 E = ; b   g Z m ! n - p z = ",
"Z 7 # : q 4 + ( 9 + + n u + + y : I 0 p + d b + O : # m 0 i 7 : : y y t O : ; : y : : 0 5 n + y 8 C # c - u & 7 X 0 9 t b - - v ",
"= U # : ; 0 ;   . ; g 8 d : + ; O u 0 d + . 5 : i + # 0 0 6 7 7 y ; y > O : : ; - 5 : 0 O n + : J B # c 5 O : + L + p 9 O y : A ",
"6 - # y * 0 : h 6 @ : > , + 5 : p d 0 d + Z 5 : 4 + # : 4   : + s + - > O 9 ; y y q : # O u 0 : a B # a : - 4 - 1 + 5 4 O 5 : > ",
"  U # y g : . : h ~ : J p + b y b d e b + R : W 4 + # y O u * : s + O   3 + x * - 4 + # 9 I e : =   + d : - 6 y z : 0 9 y 0 : } ",
"P p # O O 3 9 ;   ^ 7 J o + + 7 O d 0 F + : - : 4 # # . . Z : - . + O , 6 p o a.b O + 0 i . 0 5 6 8 + & g i M o = + # 3 O ; q   ",
"& - # o - + i : 3 g + [ - 5 # : 5 . 0 : : 4 y + 4 + # b , L : i p y O , & O @ ; y s + ^ O . 0 m 6 l - } : O 3 > & # # 3 O 0 * d ",
"z : # , y # 4 O o O @ a 3 + + : ,.p # O - o 5 # - + # + o r.O o - O - d 9 O - : y . + +.F d + + d h - 6. .z 5 : p # e O p ~ @ d ",
"> p # . - + - - . y y t.o : 5 + + O 0 . y r . # O 0 # - & u . O + O 9 d 8 o 9 9 - & 7 +.. z + : =   : 5.y s h 3 h + T O O x : = ",
"= d # 9 - : 0 : . y O t.O ; 5 ; ~ o + . 0 3 ( # O + # d & 6 . o 7 O h = } 9 n 9 O P 7 a., z @ :   o.+ > O . & 6   # 0 R - 0 - o ",
"=.- # 9 5 @ + - O O U d.i + + O ~ 8 9 n + =.d # . m # o . } o o 5 y & Z t n h O O o : ^ d z ; : C 9 i   y O d n B # + V i + 5 h ",
"& O # O y x 8.y . - - f.o 0 + i ; u 3 . : =.2.# . + # W M J O 6 o O d u 9 6 h - - o : ^ z z + 4   3 4 & - - , 8 > ^ 0 3 i : - / ",
"& U # O : ^ K : O O : t.. 0 + i ; u o - - o h # 9 + # ; 3 J O & o O d u 9 i O % - & y ^ z = y i.h 3 3 d : 5 d n ) # g 6 3 ; : y.",
"6 p # 4 - T b 7 5 - - 7.7 ; ; y + o y : - 4 h # * 0 # 4 &   ( s.b - 9 o %.4 ( y y V : ^ o z 5 O s O i = @ : d n a # : 1.. + # t."
};
